<svg width="784" height="184" viewBox="0 0 784 184" fill="none" xmlns="http://www.w3.org/2000/svg">
<path d="M23.5 12C23.5 18.3513 18.3513 23.5 12 23.5C5.64873 23.5 0.5 18.3513 0.5 12C0.5 5.64873 5.64873 0.5 12 0.5C18.3513 0.5 23.5 5.64873 23.5 12Z" stroke="#E2E2E2"/>
<path d="M63.5 12C63.5 18.3513 58.3513 23.5 52 23.5C45.6487 23.5 40.5 18.3513 40.5 12C40.5 5.64873 45.6487 0.5 52 0.5C58.3513 0.5 63.5 5.64873 63.5 12Z" stroke="#C0C0C0"/>
<path d="M103.5 12C103.5 18.3513 98.3513 23.5 92 23.5C85.6487 23.5 80.5 18.3513 80.5 12C80.5 5.64873 85.6487 0.5 92 0.5C98.3513 0.5 103.5 5.64873 103.5 12Z" stroke="#E2E2E2"/>
<path d="M143.5 12C143.5 18.3513 138.351 23.5 132 23.5C125.649 23.5 120.5 18.3513 120.5 12C120.5 5.64873 125.649 0.5 132 0.5C138.351 0.5 143.5 5.64873 143.5 12Z" stroke="#E2E2E2" stroke-opacity="0.5"/>
<path d="M183.5 12C183.5 18.3513 178.351 23.5 172 23.5C165.649 23.5 160.5 18.3513 160.5 12C160.5 5.64873 165.649 0.5 172 0.5C178.351 0.5 183.5 5.64873 183.5 12Z" stroke="#E2E2E2"/>
<path d="M223.5 12C223.5 18.3513 218.351 23.5 212 23.5C205.649 23.5 200.5 18.3513 200.5 12C200.5 5.64873 205.649 0.5 212 0.5C218.351 0.5 223.5 5.64873 223.5 12Z" stroke="#E2E2E2"/>
<path d="M263.5 12C263.5 18.3513 258.351 23.5 252 23.5C245.649 23.5 240.5 18.3513 240.5 12C240.5 5.64873 245.649 0.5 252 0.5C258.351 0.5 263.5 5.64873 263.5 12Z" stroke="#E2E2E2"/>
<path d="M303.5 12C303.5 18.3513 298.351 23.5 292 23.5C285.649 23.5 280.5 18.3513 280.5 12C280.5 5.64873 285.649 0.5 292 0.5C298.351 0.5 303.5 5.64873 303.5 12Z" stroke="#C0C0C0"/>
<path d="M343.5 12C343.5 18.3513 338.351 23.5 332 23.5C325.649 23.5 320.5 18.3513 320.5 12C320.5 5.64873 325.649 0.5 332 0.5C338.351 0.5 343.5 5.64873 343.5 12Z" stroke="#E2E2E2"/>
<path d="M383.5 12C383.5 18.3513 378.351 23.5 372 23.5C365.649 23.5 360.5 18.3513 360.5 12C360.5 5.64873 365.649 0.5 372 0.5C378.351 0.5 383.5 5.64873 383.5 12Z" stroke="#E2E2E2" stroke-opacity="0.5"/>
<path d="M423.5 12C423.5 18.3513 418.351 23.5 412 23.5C405.649 23.5 400.5 18.3513 400.5 12C400.5 5.64873 405.649 0.5 412 0.5C418.351 0.5 423.5 5.64873 423.5 12Z" stroke="#E2E2E2"/>
<path d="M463.5 12C463.5 18.3513 458.351 23.5 452 23.5C445.649 23.5 440.5 18.3513 440.5 12C440.5 5.64873 445.649 0.5 452 0.5C458.351 0.5 463.5 5.64873 463.5 12Z" stroke="#E2E2E2"/>
<path d="M503.5 12C503.5 18.3513 498.351 23.5 492 23.5C485.649 23.5 480.5 18.3513 480.5 12C480.5 5.64873 485.649 0.5 492 0.5C498.351 0.5 503.5 5.64873 503.5 12Z" stroke="#C0C0C0"/>
<path d="M543.5 12C543.5 18.3513 538.351 23.5 532 23.5C525.649 23.5 520.5 18.3513 520.5 12C520.5 5.64873 525.649 0.5 532 0.5C538.351 0.5 543.5 5.64873 543.5 12Z" stroke="#E2E2E2"/>
<path d="M583.5 12C583.5 18.3513 578.351 23.5 572 23.5C565.649 23.5 560.5 18.3513 560.5 12C560.5 5.64873 565.649 0.5 572 0.5C578.351 0.5 583.5 5.64873 583.5 12Z" stroke="#E2E2E2" stroke-opacity="0.5"/>
<path d="M623.5 12C623.5 18.3513 618.351 23.5 612 23.5C605.649 23.5 600.5 18.3513 600.5 12C600.5 5.64873 605.649 0.5 612 0.5C618.351 0.5 623.5 5.64873 623.5 12Z" stroke="#E2E2E2"/>
<path d="M663.5 12C663.5 18.3513 658.351 23.5 652 23.5C645.649 23.5 640.5 18.3513 640.5 12C640.5 5.64873 645.649 0.5 652 0.5C658.351 0.5 663.5 5.64873 663.5 12Z" stroke="#E2E2E2"/>
<path d="M743.5 12C743.5 18.3513 738.351 23.5 732 23.5C725.649 23.5 720.5 18.3513 720.5 12C720.5 5.64873 725.649 0.5 732 0.5C738.351 0.5 743.5 5.64873 743.5 12Z" stroke="#E2E2E2"/>
<path d="M703.5 12C703.5 18.3513 698.351 23.5 692 23.5C685.649 23.5 680.5 18.3513 680.5 12C680.5 5.64873 685.649 0.5 692 0.5C698.351 0.5 703.5 5.64873 703.5 12Z" stroke="#E2E2E2"/>
<path d="M783.5 12C783.5 18.3513 778.351 23.5 772 23.5C765.649 23.5 760.5 18.3513 760.5 12C760.5 5.64873 765.649 0.5 772 0.5C778.351 0.5 783.5 5.64873 783.5 12Z" stroke="#E2E2E2"/>
<path d="M23.5 52C23.5 58.3513 18.3513 63.5 12 63.5C5.64873 63.5 0.5 58.3513 0.5 52C0.5 45.6487 5.64873 40.5 12 40.5C18.3513 40.5 23.5 45.6487 23.5 52Z" stroke="#E2E2E2" stroke-opacity="0.5"/>
<path d="M63.5 52C63.5 58.3513 58.3513 63.5 52 63.5C45.6487 63.5 40.5 58.3513 40.5 52C40.5 45.6487 45.6487 40.5 52 40.5C58.3513 40.5 63.5 45.6487 63.5 52Z" stroke="#E2E2E2"/>
<path d="M103.5 52C103.5 58.3513 98.3513 63.5 92 63.5C85.6487 63.5 80.5 58.3513 80.5 52C80.5 45.6487 85.6487 40.5 92 40.5C98.3513 40.5 103.5 45.6487 103.5 52Z" stroke="#E2E2E2"/>
<path d="M143.5 52C143.5 58.3513 138.351 63.5 132 63.5C125.649 63.5 120.5 58.3513 120.5 52C120.5 45.6487 125.649 40.5 132 40.5C138.351 40.5 143.5 45.6487 143.5 52Z" stroke="#E2E2E2"/>
<path d="M183.5 52C183.5 58.3513 178.351 63.5 172 63.5C165.649 63.5 160.5 58.3513 160.5 52C160.5 45.6487 165.649 40.5 172 40.5C178.351 40.5 183.5 45.6487 183.5 52Z" stroke="#C0C0C0"/>
<path d="M223.5 52C223.5 58.3513 218.351 63.5 212 63.5C205.649 63.5 200.5 58.3513 200.5 52C200.5 45.6487 205.649 40.5 212 40.5C218.351 40.5 223.5 45.6487 223.5 52Z" stroke="#E2E2E2"/>
<path d="M263.5 52C263.5 58.3513 258.351 63.5 252 63.5C245.649 63.5 240.5 58.3513 240.5 52C240.5 45.6487 245.649 40.5 252 40.5C258.351 40.5 263.5 45.6487 263.5 52Z" stroke="#E2E2E2" stroke-opacity="0.5"/>
<path d="M303.5 52C303.5 58.3513 298.351 63.5 292 63.5C285.649 63.5 280.5 58.3513 280.5 52C280.5 45.6487 285.649 40.5 292 40.5C298.351 40.5 303.5 45.6487 303.5 52Z" stroke="#E2E2E2"/>
<path d="M343.5 52C343.5 58.3513 338.351 63.5 332 63.5C325.649 63.5 320.5 58.3513 320.5 52C320.5 45.6487 325.649 40.5 332 40.5C338.351 40.5 343.5 45.6487 343.5 52Z" stroke="#E2E2E2"/>
<path d="M383.5 52C383.5 58.3513 378.351 63.5 372 63.5C365.649 63.5 360.5 58.3513 360.5 52C360.5 45.6487 365.649 40.5 372 40.5C378.351 40.5 383.5 45.6487 383.5 52Z" stroke="#C0C0C0"/>
<path d="M423.5 52C423.5 58.3513 418.351 63.5 412 63.5C405.649 63.5 400.5 58.3513 400.5 52C400.5 45.6487 405.649 40.5 412 40.5C418.351 40.5 423.5 45.6487 423.5 52Z" stroke="#E2E2E2" stroke-opacity="0.5"/>
<path d="M463.5 52C463.5 58.3513 458.351 63.5 452 63.5C445.649 63.5 440.5 58.3513 440.5 52C440.5 45.6487 445.649 40.5 452 40.5C458.351 40.5 463.5 45.6487 463.5 52Z" stroke="#E2E2E2"/>
<path d="M503.5 52C503.5 58.3513 498.351 63.5 492 63.5C485.649 63.5 480.5 58.3513 480.5 52C480.5 45.6487 485.649 40.5 492 40.5C498.351 40.5 503.5 45.6487 503.5 52Z" stroke="#E2E2E2"/>
<path d="M543.5 52C543.5 58.3513 538.351 63.5 532 63.5C525.649 63.5 520.5 58.3513 520.5 52C520.5 45.6487 525.649 40.5 532 40.5C538.351 40.5 543.5 45.6487 543.5 52Z" stroke="#E2E2E2"/>
<path d="M583.5 52C583.5 58.3513 578.351 63.5 572 63.5C565.649 63.5 560.5 58.3513 560.5 52C560.5 45.6487 565.649 40.5 572 40.5C578.351 40.5 583.5 45.6487 583.5 52Z" stroke="#E2E2E2"/>
<path d="M623.5 52C623.5 58.3513 618.351 63.5 612 63.5C605.649 63.5 600.5 58.3513 600.5 52C600.5 45.6487 605.649 40.5 612 40.5C618.351 40.5 623.5 45.6487 623.5 52Z" stroke="#E2E2E2" stroke-opacity="0.5"/>
<path d="M663.5 52C663.5 58.3513 658.351 63.5 652 63.5C645.649 63.5 640.5 58.3513 640.5 52C640.5 45.6487 645.649 40.5 652 40.5C658.351 40.5 663.5 45.6487 663.5 52Z" stroke="#C0C0C0"/>
<path d="M743.5 92C743.5 98.3513 738.351 103.5 732 103.5C725.649 103.5 720.5 98.3513 720.5 92C720.5 85.6487 725.649 80.5 732 80.5C738.351 80.5 743.5 85.6487 743.5 92Z" stroke="#C0C0C0"/>
<path d="M703.5 52C703.5 58.3513 698.351 63.5 692 63.5C685.649 63.5 680.5 58.3513 680.5 52C680.5 45.6487 685.649 40.5 692 40.5C698.351 40.5 703.5 45.6487 703.5 52Z" stroke="#E2E2E2"/>
<path d="M783.5 52C783.5 58.3513 778.351 63.5 772 63.5C765.649 63.5 760.5 58.3513 760.5 52C760.5 45.6487 765.649 40.5 772 40.5C778.351 40.5 783.5 45.6487 783.5 52Z" stroke="#E2E2E2"/>
<path d="M23.5 92C23.5 98.3513 18.3513 103.5 12 103.5C5.64873 103.5 0.5 98.3513 0.5 92C0.5 85.6487 5.64873 80.5 12 80.5C18.3513 80.5 23.5 85.6487 23.5 92Z" stroke="#E2E2E2"/>
<path d="M63.5 92C63.5 98.3513 58.3513 103.5 52 103.5C45.6487 103.5 40.5 98.3513 40.5 92C40.5 85.6487 45.6487 80.5 52 80.5C58.3513 80.5 63.5 85.6487 63.5 92Z" stroke="#E2E2E2"/>
<path d="M103.5 92C103.5 98.3513 98.3513 103.5 92 103.5C85.6487 103.5 80.5 98.3513 80.5 92C80.5 85.6487 85.6487 80.5 92 80.5C98.3513 80.5 103.5 85.6487 103.5 92Z" stroke="#C0C0C0"/>
<path d="M143.5 92C143.5 98.3513 138.351 103.5 132 103.5C125.649 103.5 120.5 98.3513 120.5 92C120.5 85.6487 125.649 80.5 132 80.5C138.351 80.5 143.5 85.6487 143.5 92Z" stroke="#E2E2E2"/>
<path d="M183.5 92C183.5 98.3513 178.351 103.5 172 103.5C165.649 103.5 160.5 98.3513 160.5 92C160.5 85.6487 165.649 80.5 172 80.5C178.351 80.5 183.5 85.6487 183.5 92Z" stroke="#E2E2E2"/>
<path d="M223.5 92C223.5 98.3513 218.351 103.5 212 103.5C205.649 103.5 200.5 98.3513 200.5 92C200.5 85.6487 205.649 80.5 212 80.5C218.351 80.5 223.5 85.6487 223.5 92Z" stroke="#E2E2E2"/>
<path d="M263.5 92C263.5 98.3513 258.351 103.5 252 103.5C245.649 103.5 240.5 98.3513 240.5 92C240.5 85.6487 245.649 80.5 252 80.5C258.351 80.5 263.5 85.6487 263.5 92Z" stroke="#E2E2E2"/>
<path d="M303.5 92C303.5 98.3513 298.351 103.5 292 103.5C285.649 103.5 280.5 98.3513 280.5 92C280.5 85.6487 285.649 80.5 292 80.5C298.351 80.5 303.5 85.6487 303.5 92Z" stroke="#E2E2E2"/>
<path d="M343.5 92C343.5 98.3513 338.351 103.5 332 103.5C325.649 103.5 320.5 98.3513 320.5 92C320.5 85.6487 325.649 80.5 332 80.5C338.351 80.5 343.5 85.6487 343.5 92Z" stroke="#E2E2E2"/>
<path d="M383.5 92C383.5 98.3513 378.351 103.5 372 103.5C365.649 103.5 360.5 98.3513 360.5 92C360.5 85.6487 365.649 80.5 372 80.5C378.351 80.5 383.5 85.6487 383.5 92Z" stroke="#E2E2E2"/>
<path d="M423.5 92C423.5 98.3513 418.351 103.5 412 103.5C405.649 103.5 400.5 98.3513 400.5 92C400.5 85.6487 405.649 80.5 412 80.5C418.351 80.5 423.5 85.6487 423.5 92Z" stroke="#E2E2E2"/>
<path d="M463.5 92C463.5 98.3513 458.351 103.5 452 103.5C445.649 103.5 440.5 98.3513 440.5 92C440.5 85.6487 445.649 80.5 452 80.5C458.351 80.5 463.5 85.6487 463.5 92Z" stroke="#C0C0C0"/>
<path d="M503.5 92C503.5 98.3513 498.351 103.5 492 103.5C485.649 103.5 480.5 98.3513 480.5 92C480.5 85.6487 485.649 80.5 492 80.5C498.351 80.5 503.5 85.6487 503.5 92Z" stroke="#E2E2E2"/>
<path d="M543.5 92C543.5 98.3513 538.351 103.5 532 103.5C525.649 103.5 520.5 98.3513 520.5 92C520.5 85.6487 525.649 80.5 532 80.5C538.351 80.5 543.5 85.6487 543.5 92Z" stroke="#E2E2E2"/>
<path d="M583.5 92C583.5 98.3513 578.351 103.5 572 103.5C565.649 103.5 560.5 98.3513 560.5 92C560.5 85.6487 565.649 80.5 572 80.5C578.351 80.5 583.5 85.6487 583.5 92Z" stroke="#C0C0C0"/>
<path d="M623.5 92C623.5 98.3513 618.351 103.5 612 103.5C605.649 103.5 600.5 98.3513 600.5 92C600.5 85.6487 605.649 80.5 612 80.5C618.351 80.5 623.5 85.6487 623.5 92Z" stroke="#E2E2E2"/>
<path d="M663.5 92C663.5 98.3513 658.351 103.5 652 103.5C645.649 103.5 640.5 98.3513 640.5 92C640.5 85.6487 645.649 80.5 652 80.5C658.351 80.5 663.5 85.6487 663.5 92Z" stroke="#E2E2E2"/>
<path d="M743.5 52C743.5 58.3513 738.351 63.5 732 63.5C725.649 63.5 720.5 58.3513 720.5 52C720.5 45.6487 725.649 40.5 732 40.5C738.351 40.5 743.5 45.6487 743.5 52Z" stroke="#E2E2E2"/>
<path d="M703.5 92C703.5 98.3513 698.351 103.5 692 103.5C685.649 103.5 680.5 98.3513 680.5 92C680.5 85.6487 685.649 80.5 692 80.5C698.351 80.5 703.5 85.6487 703.5 92Z" stroke="#E2E2E2"/>
<path d="M783.5 92C783.5 98.3513 778.351 103.5 772 103.5C765.649 103.5 760.5 98.3513 760.5 92C760.5 85.6487 765.649 80.5 772 80.5C778.351 80.5 783.5 85.6487 783.5 92Z" stroke="#E2E2E2"/>
<path d="M23.5 132C23.5 138.351 18.3513 143.5 12 143.5C5.64873 143.5 0.5 138.351 0.5 132C0.5 125.649 5.64873 120.5 12 120.5C18.3513 120.5 23.5 125.649 23.5 132Z" stroke="#E2E2E2"/>
<path d="M63.5 132C63.5 138.351 58.3513 143.5 52 143.5C45.6487 143.5 40.5 138.351 40.5 132C40.5 125.649 45.6487 120.5 52 120.5C58.3513 120.5 63.5 125.649 63.5 132Z" stroke="#E2E2E2"/>
<path d="M103.5 132C103.5 138.351 98.3513 143.5 92 143.5C85.6487 143.5 80.5 138.351 80.5 132C80.5 125.649 85.6487 120.5 92 120.5C98.3513 120.5 103.5 125.649 103.5 132Z" stroke="#E2E2E2"/>
<path d="M143.5 132C143.5 138.351 138.351 143.5 132 143.5C125.649 143.5 120.5 138.351 120.5 132C120.5 125.649 125.649 120.5 132 120.5C138.351 120.5 143.5 125.649 143.5 132Z" stroke="#E2E2E2"/>
<path d="M183.5 132C183.5 138.351 178.351 143.5 172 143.5C165.649 143.5 160.5 138.351 160.5 132C160.5 125.649 165.649 120.5 172 120.5C178.351 120.5 183.5 125.649 183.5 132Z" stroke="#E2E2E2" stroke-opacity="0.5"/>
<path d="M223.5 132C223.5 138.351 218.351 143.5 212 143.5C205.649 143.5 200.5 138.351 200.5 132C200.5 125.649 205.649 120.5 212 120.5C218.351 120.5 223.5 125.649 223.5 132Z" stroke="#E2E2E2"/>
<path d="M263.5 132C263.5 138.351 258.351 143.5 252 143.5C245.649 143.5 240.5 138.351 240.5 132C240.5 125.649 245.649 120.5 252 120.5C258.351 120.5 263.5 125.649 263.5 132Z" stroke="#C0C0C0"/>
<path d="M303.5 132C303.5 138.351 298.351 143.5 292 143.5C285.649 143.5 280.5 138.351 280.5 132C280.5 125.649 285.649 120.5 292 120.5C298.351 120.5 303.5 125.649 303.5 132Z" stroke="#E2E2E2"/>
<path d="M343.5 132C343.5 138.351 338.351 143.5 332 143.5C325.649 143.5 320.5 138.351 320.5 132C320.5 125.649 325.649 120.5 332 120.5C338.351 120.5 343.5 125.649 343.5 132Z" stroke="#E2E2E2"/>
<path d="M383.5 132C383.5 138.351 378.351 143.5 372 143.5C365.649 143.5 360.5 138.351 360.5 132C360.5 125.649 365.649 120.5 372 120.5C378.351 120.5 383.5 125.649 383.5 132Z" stroke="#E2E2E2"/>
<path d="M423.5 132C423.5 138.351 418.351 143.5 412 143.5C405.649 143.5 400.5 138.351 400.5 132C400.5 125.649 405.649 120.5 412 120.5C418.351 120.5 423.5 125.649 423.5 132Z" stroke="#E2E2E2"/>
<path d="M463.5 132C463.5 138.351 458.351 143.5 452 143.5C445.649 143.5 440.5 138.351 440.5 132C440.5 125.649 445.649 120.5 452 120.5C458.351 120.5 463.5 125.649 463.5 132Z" stroke="#E2E2E2"/>
<path d="M503.5 132C503.5 138.351 498.351 143.5 492 143.5C485.649 143.5 480.5 138.351 480.5 132C480.5 125.649 485.649 120.5 492 120.5C498.351 120.5 503.5 125.649 503.5 132Z" stroke="#E2E2E2" stroke-opacity="0.5"/>
<path d="M543.5 132C543.5 138.351 538.351 143.5 532 143.5C525.649 143.5 520.5 138.351 520.5 132C520.5 125.649 525.649 120.5 532 120.5C538.351 120.5 543.5 125.649 543.5 132Z" stroke="#E2E2E2"/>
<path d="M583.5 132C583.5 138.351 578.351 143.5 572 143.5C565.649 143.5 560.5 138.351 560.5 132C560.5 125.649 565.649 120.5 572 120.5C578.351 120.5 583.5 125.649 583.5 132Z" stroke="#E2E2E2"/>
<path d="M623.5 132C623.5 138.351 618.351 143.5 612 143.5C605.649 143.5 600.5 138.351 600.5 132C600.5 125.649 605.649 120.5 612 120.5C618.351 120.5 623.5 125.649 623.5 132Z" stroke="#E2E2E2"/>
<path d="M663.5 132C663.5 138.351 658.351 143.5 652 143.5C645.649 143.5 640.5 138.351 640.5 132C640.5 125.649 645.649 120.5 652 120.5C658.351 120.5 663.5 125.649 663.5 132Z" stroke="#E2E2E2"/>
<path d="M743.5 132C743.5 138.351 738.351 143.5 732 143.5C725.649 143.5 720.5 138.351 720.5 132C720.5 125.649 725.649 120.5 732 120.5C738.351 120.5 743.5 125.649 743.5 132Z" stroke="#E2E2E2"/>
<path d="M703.5 132C703.5 138.351 698.351 143.5 692 143.5C685.649 143.5 680.5 138.351 680.5 132C680.5 125.649 685.649 120.5 692 120.5C698.351 120.5 703.5 125.649 703.5 132Z" stroke="#E2E2E2"/>
<path d="M783.5 132C783.5 138.351 778.351 143.5 772 143.5C765.649 143.5 760.5 138.351 760.5 132C760.5 125.649 765.649 120.5 772 120.5C778.351 120.5 783.5 125.649 783.5 132Z" stroke="#E2E2E2"/>
</svg>
