<svg width="935" height="180" viewBox="0 0 935 180" fill="none" xmlns="http://www.w3.org/2000/svg">
<path d="M6.12435 0.5H35.291C38.2365 0.5 40.6243 2.88781 40.6243 5.83333V35C40.6243 37.9455 38.2365 40.3333 35.291 40.3333H6.12435C3.17883 40.3333 0.791016 37.9455 0.791016 35V5.83333C0.791016 2.88781 3.17883 0.5 6.12435 0.5Z" stroke="#E2E2E2"/>
<path d="M6.12435 50.0833H35.291C38.2365 50.0833 40.6243 52.4711 40.6243 55.4167V84.5833C40.6243 87.5288 38.2365 89.9167 35.291 89.9167H6.12435C3.17883 89.9167 0.791016 87.5288 0.791016 84.5833V55.4167C0.791016 52.4711 3.17883 50.0833 6.12435 50.0833Z" stroke="#E2E2E2"/>
<path d="M6.12435 99.6667H35.291C38.2365 99.6667 40.6243 102.054 40.6243 105V134.167C40.6243 137.112 38.2365 139.5 35.291 139.5H6.12435C3.17883 139.5 0.791016 137.112 0.791016 134.167V105C0.791016 102.054 3.17883 99.6667 6.12435 99.6667Z" stroke="#E2E2E2"/>
<path d="M55.7083 0.5H84.875C87.8205 0.5 90.2083 2.88781 90.2083 5.83333V35C90.2083 37.9455 87.8205 40.3333 84.875 40.3333H55.7083C52.7628 40.3333 50.375 37.9455 50.375 35V5.83333C50.375 2.88781 52.7628 0.5 55.7083 0.5Z" stroke="#C0C0C0"/>
<path d="M55.7083 50.0833H84.875C87.8205 50.0833 90.2083 52.4711 90.2083 55.4167V84.5833C90.2083 87.5288 87.8205 89.9167 84.875 89.9167H55.7083C52.7628 89.9167 50.375 87.5288 50.375 84.5833V55.4167C50.375 52.4711 52.7628 50.0833 55.7083 50.0833Z" stroke="#E2E2E2"/>
<path d="M55.7083 99.6667H84.875C87.8205 99.6667 90.2083 102.054 90.2083 105V134.167C90.2083 137.112 87.8205 139.5 84.875 139.5H55.7083C52.7628 139.5 50.375 137.112 50.375 134.167V105C50.375 102.054 52.7628 99.6667 55.7083 99.6667Z" stroke="#E2E2E2"/>
<path d="M105.292 0.5H134.459C137.405 0.5 139.792 2.88781 139.792 5.83333V35C139.792 37.9455 137.405 40.3333 134.459 40.3333H105.292C102.347 40.3333 99.959 37.9455 99.959 35V5.83333C99.959 2.88781 102.347 0.5 105.292 0.5Z" stroke="#E2E2E2"/>
<path d="M105.292 50.0833H134.459C137.405 50.0833 139.792 52.4711 139.792 55.4167V84.5833C139.792 87.5288 137.405 89.9167 134.459 89.9167H105.292C102.347 89.9167 99.959 87.5288 99.959 84.5833V55.4167C99.959 52.4711 102.347 50.0833 105.292 50.0833Z" stroke="#E2E2E2"/>
<path d="M105.292 99.6667H134.459C137.405 99.6667 139.792 102.054 139.792 105V134.167C139.792 137.112 137.405 139.5 134.459 139.5H105.292C102.347 139.5 99.959 137.112 99.959 134.167V105C99.959 102.054 102.347 99.6667 105.292 99.6667Z" stroke="#C0C0C0"/>
<path d="M154.874 0.5H184.041C186.987 0.5 189.374 2.88781 189.374 5.83333V35C189.374 37.9455 186.987 40.3333 184.041 40.3333H154.874C151.929 40.3333 149.541 37.9455 149.541 35V5.83333C149.541 2.88781 151.929 0.5 154.874 0.5Z" stroke="#E2E2E2" stroke-opacity="0.5"/>
<path d="M154.874 50.0833H184.041C186.987 50.0833 189.374 52.4711 189.374 55.4167V84.5833C189.374 87.5288 186.987 89.9167 184.041 89.9167H154.874C151.929 89.9167 149.541 87.5288 149.541 84.5833V55.4167C149.541 52.4711 151.929 50.0833 154.874 50.0833Z" stroke="#C0C0C0"/>
<path d="M154.874 99.6667H184.041C186.987 99.6667 189.374 102.054 189.374 105V134.167C189.374 137.112 186.987 139.5 184.041 139.5H154.874C151.929 139.5 149.541 137.112 149.541 134.167V105C149.541 102.054 151.929 99.6667 154.874 99.6667Z" stroke="#E2E2E2"/>
<path d="M204.458 0.5H233.625C236.571 0.5 238.958 2.88781 238.958 5.83333V35C238.958 37.9455 236.571 40.3333 233.625 40.3333H204.458C201.513 40.3333 199.125 37.9455 199.125 35V5.83333C199.125 2.88781 201.513 0.5 204.458 0.5Z" stroke="#E2E2E2"/>
<path d="M204.458 50.0833H233.625C236.571 50.0833 238.958 52.4711 238.958 55.4167V84.5833C238.958 87.5288 236.571 89.9167 233.625 89.9167H204.458C201.513 89.9167 199.125 87.5288 199.125 84.5833V55.4167C199.125 52.4711 201.513 50.0833 204.458 50.0833Z" stroke="#E2E2E2"/>
<path d="M204.458 99.6667H233.625C236.571 99.6667 238.958 102.054 238.958 105V134.167C238.958 137.112 236.571 139.5 233.625 139.5H204.458C201.513 139.5 199.125 137.112 199.125 134.167V105C199.125 102.054 201.513 99.6667 204.458 99.6667Z" stroke="#E2E2E2" stroke-opacity="0.5"/>
<path d="M254.042 0.5H283.209C286.155 0.5 288.542 2.88781 288.542 5.83333V35C288.542 37.9455 286.155 40.3333 283.209 40.3333H254.042C251.097 40.3333 248.709 37.9455 248.709 35V5.83333C248.709 2.88781 251.097 0.5 254.042 0.5Z" stroke="#C0C0C0"/>
<path d="M254.042 50.0833H283.209C286.155 50.0833 288.542 52.4711 288.542 55.4167V84.5833C288.542 87.5288 286.155 89.9167 283.209 89.9167H254.042C251.097 89.9167 248.709 87.5288 248.709 84.5833V55.4167C248.709 52.4711 251.097 50.0833 254.042 50.0833Z" stroke="#E2E2E2"/>
<path d="M254.042 99.6667H283.209C286.155 99.6667 288.542 102.054 288.542 105V134.167C288.542 137.112 286.155 139.5 283.209 139.5H254.042C251.097 139.5 248.709 137.112 248.709 134.167V105C248.709 102.054 251.097 99.6667 254.042 99.6667Z" stroke="#E2E2E2"/>
<path d="M303.624 0.5H332.791C335.737 0.5 338.124 2.88781 338.124 5.83333V35C338.124 37.9455 335.737 40.3333 332.791 40.3333H303.624C300.679 40.3333 298.291 37.9455 298.291 35V5.83333C298.291 2.88781 300.679 0.5 303.624 0.5Z" stroke="#E2E2E2"/>
<path d="M501.958 0.5H531.125C534.071 0.5 536.458 2.88781 536.458 5.83333V35C536.458 37.9455 534.071 40.3333 531.125 40.3333H501.958C499.013 40.3333 496.625 37.9455 496.625 35V5.83333C496.625 2.88781 499.013 0.5 501.958 0.5Z" stroke="#E2E2E2" stroke-opacity="0.5"/>
<path d="M750.417 0.5H779.584C782.53 0.5 784.917 2.88781 784.917 5.83333V35C784.917 37.9455 782.53 40.3333 779.584 40.3333H750.417C747.472 40.3333 745.084 37.9455 745.084 35V5.83333C745.084 2.88781 747.472 0.5 750.417 0.5Z" stroke="#E2E2E2"/>
<path d="M303.624 50.0833H332.791C335.737 50.0833 338.124 52.4711 338.124 55.4167V84.5833C338.124 87.5288 335.737 89.9167 332.791 89.9167H303.624C300.679 89.9167 298.291 87.5288 298.291 84.5833V55.4167C298.291 52.4711 300.679 50.0833 303.624 50.0833Z" stroke="#E2E2E2"/>
<path d="M501.958 50.0833H531.125C534.071 50.0833 536.458 52.4711 536.458 55.4167V84.5833C536.458 87.5288 534.071 89.9167 531.125 89.9167H501.958C499.013 89.9167 496.625 87.5288 496.625 84.5833V55.4167C496.625 52.4711 499.013 50.0833 501.958 50.0833Z" stroke="#E2E2E2"/>
<path d="M750.417 50.0833H779.584C782.53 50.0833 784.917 52.4711 784.917 55.4167V84.5833C784.917 87.5288 782.53 89.9167 779.584 89.9167H750.417C747.472 89.9167 745.084 87.5288 745.084 84.5833V55.4167C745.084 52.4711 747.472 50.0833 750.417 50.0833Z" stroke="#E2E2E2"/>
<path d="M303.624 99.6667H332.791C335.737 99.6667 338.124 102.054 338.124 105V134.167C338.124 137.112 335.737 139.5 332.791 139.5H303.624C300.679 139.5 298.291 137.112 298.291 134.167V105C298.291 102.054 300.679 99.6667 303.624 99.6667Z" stroke="#C0C0C0"/>
<path d="M501.958 99.6667H531.125C534.071 99.6667 536.458 102.054 536.458 105V134.167C536.458 137.112 534.071 139.5 531.125 139.5H501.958C499.013 139.5 496.625 137.112 496.625 134.167V105C496.625 102.054 499.013 99.6667 501.958 99.6667Z" stroke="#C0C0C0"/>
<path d="M750.417 99.6667H779.584C782.53 99.6667 784.917 102.054 784.917 105V134.167C784.917 137.112 782.53 139.5 779.584 139.5H750.417C747.472 139.5 745.084 137.112 745.084 134.167V105C745.084 102.054 747.472 99.6667 750.417 99.6667Z" stroke="#C0C0C0"/>
<path d="M353.208 0.5H382.375C385.321 0.5 387.708 2.88781 387.708 5.83333V35C387.708 37.9455 385.321 40.3333 382.375 40.3333H353.208C350.263 40.3333 347.875 37.9455 347.875 35V5.83333C347.875 2.88781 350.263 0.5 353.208 0.5Z" stroke="#E2E2E2"/>
<path d="M551.542 0.5H580.709C583.655 0.5 586.042 2.88781 586.042 5.83333V35C586.042 37.9455 583.655 40.3333 580.709 40.3333H551.542C548.597 40.3333 546.209 37.9455 546.209 35V5.83333C546.209 2.88781 548.597 0.5 551.542 0.5Z" stroke="#E2E2E2"/>
<path d="M800.001 0.5H829.168C832.113 0.5 834.501 2.88781 834.501 5.83333V35C834.501 37.9455 832.113 40.3333 829.168 40.3333H800.001C797.056 40.3333 794.668 37.9455 794.668 35V5.83333C794.668 2.88781 797.056 0.5 800.001 0.5Z" stroke="#E2E2E2"/>
<path d="M402.792 0.5H431.959C434.905 0.5 437.292 2.88781 437.292 5.83333V35C437.292 37.9455 434.905 40.3333 431.959 40.3333H402.792C399.847 40.3333 397.459 37.9455 397.459 35V5.83333C397.459 2.88781 399.847 0.5 402.792 0.5Z" stroke="#E2E2E2"/>
<path d="M601.124 0.5H630.291C633.237 0.5 635.624 2.88781 635.624 5.83333V35C635.624 37.9455 633.237 40.3333 630.291 40.3333H601.124C598.179 40.3333 595.791 37.9455 595.791 35V5.83333C595.791 2.88781 598.179 0.5 601.124 0.5Z" stroke="#E2E2E2"/>
<path d="M849.583 0.5H878.75C881.696 0.5 884.083 2.88781 884.083 5.83333V35C884.083 37.9455 881.696 40.3333 878.75 40.3333H849.583C846.638 40.3333 844.25 37.9455 844.25 35V5.83333C844.25 2.88781 846.638 0.5 849.583 0.5Z" stroke="#E2E2E2"/>
<path d="M452.374 0.5H481.541C484.487 0.5 486.874 2.88781 486.874 5.83333V35C486.874 37.9455 484.487 40.3333 481.541 40.3333H452.374C449.429 40.3333 447.041 37.9455 447.041 35V5.83333C447.041 2.88781 449.429 0.5 452.374 0.5Z" stroke="#E2E2E2"/>
<path d="M700.833 0.5H730C732.946 0.5 735.333 2.88781 735.333 5.83333V35C735.333 37.9455 732.946 40.3333 730 40.3333H700.833C697.888 40.3333 695.5 37.9455 695.5 35V5.83333C695.5 2.88781 697.888 0.5 700.833 0.5Z" stroke="#E2E2E2"/>
<path d="M650.708 0.5H679.875C682.821 0.5 685.208 2.88781 685.208 5.83333V35C685.208 37.9455 682.821 40.3333 679.875 40.3333H650.708C647.763 40.3333 645.375 37.9455 645.375 35V5.83333C645.375 2.88781 647.763 0.5 650.708 0.5Z" stroke="#E2E2E2"/>
<path d="M899.167 0.5H928.334C931.28 0.5 933.667 2.88781 933.667 5.83333V35C933.667 37.9455 931.28 40.3333 928.334 40.3333H899.167C896.222 40.3333 893.834 37.9455 893.834 35V5.83333C893.834 2.88781 896.222 0.5 899.167 0.5Z" stroke="#E2E2E2"/>
<path d="M353.208 50.0833H382.375C385.321 50.0833 387.708 52.4711 387.708 55.4167V84.5833C387.708 87.5288 385.321 89.9167 382.375 89.9167H353.208C350.263 89.9167 347.875 87.5288 347.875 84.5833V55.4167C347.875 52.4711 350.263 50.0833 353.208 50.0833Z" stroke="#E2E2E2" stroke-opacity="0.5"/>
<path d="M551.542 50.0833H580.709C583.655 50.0833 586.042 52.4711 586.042 55.4167V84.5833C586.042 87.5288 583.655 89.9167 580.709 89.9167H551.542C548.597 89.9167 546.209 87.5288 546.209 84.5833V55.4167C546.209 52.4711 548.597 50.0833 551.542 50.0833Z" stroke="#E2E2E2"/>
<path d="M800.001 50.0833H829.168C832.113 50.0833 834.501 52.4711 834.501 55.4167V84.5833C834.501 87.5288 832.113 89.9167 829.168 89.9167H800.001C797.056 89.9167 794.668 87.5288 794.668 84.5833V55.4167C794.668 52.4711 797.056 50.0833 800.001 50.0833Z" stroke="#E2E2E2"/>
<path d="M402.792 50.0833H431.959C434.905 50.0833 437.292 52.4711 437.292 55.4167V84.5833C437.292 87.5288 434.905 89.9167 431.959 89.9167H402.792C399.847 89.9167 397.459 87.5288 397.459 84.5833V55.4167C397.459 52.4711 399.847 50.0833 402.792 50.0833Z" stroke="#C0C0C0"/>
<path d="M601.124 50.0833H630.291C633.237 50.0833 635.624 52.4711 635.624 55.4167V84.5833C635.624 87.5288 633.237 89.9167 630.291 89.9167H601.124C598.179 89.9167 595.791 87.5288 595.791 84.5833V55.4167C595.791 52.4711 598.179 50.0833 601.124 50.0833Z" stroke="#C0C0C0"/>
<path d="M849.583 50.0833H878.75C881.696 50.0833 884.083 52.4711 884.083 55.4167V84.5833C884.083 87.5288 881.696 89.9167 878.75 89.9167H849.583C846.638 89.9167 844.25 87.5288 844.25 84.5833V55.4167C844.25 52.4711 846.638 50.0833 849.583 50.0833Z" stroke="#C0C0C0"/>
<path d="M452.374 50.0833H481.541C484.487 50.0833 486.874 52.4711 486.874 55.4167V84.5833C486.874 87.5288 484.487 89.9167 481.541 89.9167H452.374C449.429 89.9167 447.041 87.5288 447.041 84.5833V55.4167C447.041 52.4711 449.429 50.0833 452.374 50.0833Z" stroke="#E2E2E2"/>
<path d="M700.833 50.0833H730C732.946 50.0833 735.333 52.4711 735.333 55.4167V84.5833C735.333 87.5288 732.946 89.9167 730 89.9167H700.833C697.888 89.9167 695.5 87.5288 695.5 84.5833V55.4167C695.5 52.4711 697.888 50.0833 700.833 50.0833Z" stroke="#E2E2E2" stroke-opacity="0.5"/>
<path d="M650.708 50.0833H679.875C682.821 50.0833 685.208 52.4711 685.208 55.4167V84.5833C685.208 87.5288 682.821 89.9167 679.875 89.9167H650.708C647.763 89.9167 645.375 87.5288 645.375 84.5833V55.4167C645.375 52.4711 647.763 50.0833 650.708 50.0833Z" stroke="#E2E2E2"/>
<path d="M899.167 50.0833H928.334C931.28 50.0833 933.667 52.4711 933.667 55.4167V84.5833C933.667 87.5288 931.28 89.9167 928.334 89.9167H899.167C896.222 89.9167 893.834 87.5288 893.834 84.5833V55.4167C893.834 52.4711 896.222 50.0833 899.167 50.0833Z" stroke="#E2E2E2"/>
<path d="M353.208 99.6667H382.375C385.321 99.6667 387.708 102.054 387.708 105V134.167C387.708 137.112 385.321 139.5 382.375 139.5H353.208C350.263 139.5 347.875 137.112 347.875 134.167V105C347.875 102.054 350.263 99.6667 353.208 99.6667Z" stroke="#E2E2E2"/>
<path d="M551.542 99.6667H580.709C583.655 99.6667 586.042 102.054 586.042 105V134.167C586.042 137.112 583.655 139.5 580.709 139.5H551.542C548.597 139.5 546.209 137.112 546.209 134.167V105C546.209 102.054 548.597 99.6667 551.542 99.6667Z" stroke="#E2E2E2"/>
<path d="M800.001 99.6667H829.168C832.113 99.6667 834.501 102.054 834.501 105V134.167C834.501 137.112 832.113 139.5 829.168 139.5H800.001C797.056 139.5 794.668 137.112 794.668 134.167V105C794.668 102.054 797.056 99.6667 800.001 99.6667Z" stroke="#E2E2E2"/>
<path d="M402.792 99.6667H431.959C434.905 99.6667 437.292 102.054 437.292 105V134.167C437.292 137.112 434.905 139.5 431.959 139.5H402.792C399.847 139.5 397.459 137.112 397.459 134.167V105C397.459 102.054 399.847 99.6667 402.792 99.6667Z" stroke="#E2E2E2"/>
<path d="M601.124 99.6667H630.291C633.237 99.6667 635.624 102.054 635.624 105V134.167C635.624 137.112 633.237 139.5 630.291 139.5H601.124C598.179 139.5 595.791 137.112 595.791 134.167V105C595.791 102.054 598.179 99.6667 601.124 99.6667Z" stroke="#E2E2E2"/>
<path d="M849.583 99.6667H878.75C881.696 99.6667 884.083 102.054 884.083 105V134.167C884.083 137.112 881.696 139.5 878.75 139.5H849.583C846.638 139.5 844.25 137.112 844.25 134.167V105C844.25 102.054 846.638 99.6667 849.583 99.6667Z" stroke="#E2E2E2"/>
<path d="M452.374 99.6667H481.541C484.487 99.6667 486.874 102.054 486.874 105V134.167C486.874 137.112 484.487 139.5 481.541 139.5H452.374C449.429 139.5 447.041 137.112 447.041 134.167V105C447.041 102.054 449.429 99.6667 452.374 99.6667Z" stroke="#E2E2E2"/>
<path d="M700.833 99.6667H730C732.946 99.6667 735.333 102.054 735.333 105V134.167C735.333 137.112 732.946 139.5 730 139.5H700.833C697.888 139.5 695.5 137.112 695.5 134.167V105C695.5 102.054 697.888 99.6667 700.833 99.6667Z" stroke="#E2E2E2"/>
<path d="M650.708 99.6667H679.875C682.821 99.6667 685.208 102.054 685.208 105V134.167C685.208 137.112 682.821 139.5 679.875 139.5H650.708C647.763 139.5 645.375 137.112 645.375 134.167V105C645.375 102.054 647.763 99.6667 650.708 99.6667Z" stroke="#E2E2E2"/>
<path d="M899.167 99.6667H928.334C931.28 99.6667 933.667 102.054 933.667 105V134.167C933.667 137.112 931.28 139.5 928.334 139.5H899.167C896.222 139.5 893.834 137.112 893.834 134.167V105C893.834 102.054 896.222 99.6667 899.167 99.6667Z" stroke="#E2E2E2"/>
</svg>
