<svg width="820" height="180" viewBox="0 0 820 180" fill="none" xmlns="http://www.w3.org/2000/svg">
<path d="M8 0.5H32C36.2038 0.5 39.5 3.48775 39.5 7.04402V132.956C39.5 136.512 36.2038 139.5 32 139.5H8C3.79618 139.5 0.5 136.512 0.5 132.956V7.04402C0.5 3.48775 3.79618 0.5 8 0.5Z" stroke="#C0C0C0"/>
<path opacity="0.9" d="M68 0.5H92C96.2038 0.5 99.5 3.48775 99.5 7.04402V132.956C99.5 136.512 96.2038 139.5 92 139.5H68C63.7962 139.5 60.5 136.512 60.5 132.956V7.04402C60.5 3.48775 63.7962 0.5 68 0.5Z" stroke="#C0C0C0"/>
<path opacity="0.8" d="M128 0.5H152C156.204 0.5 159.5 3.48775 159.5 7.04402V132.956C159.5 136.512 156.204 139.5 152 139.5H128C123.796 139.5 120.5 136.512 120.5 132.956V7.04402C120.5 3.48775 123.796 0.5 128 0.5Z" stroke="#C0C0C0"/>
<path opacity="0.7" d="M188 0.5H212C216.204 0.5 219.5 3.48775 219.5 7.04402V132.956C219.5 136.512 216.204 139.5 212 139.5H188C183.796 139.5 180.5 136.512 180.5 132.956V7.04402C180.5 3.48775 183.796 0.5 188 0.5Z" stroke="#C0C0C0"/>
<path opacity="0.6" d="M248 0.5H272C276.204 0.5 279.5 3.48775 279.5 7.04402V132.956C279.5 136.512 276.204 139.5 272 139.5H248C243.796 139.5 240.5 136.512 240.5 132.956V7.04402C240.5 3.48775 243.796 0.5 248 0.5Z" stroke="#C0C0C0"/>
<path opacity="0.5" d="M308 0.5H332C336.204 0.5 339.5 3.48775 339.5 7.04402V132.956C339.5 136.512 336.204 139.5 332 139.5H308C303.796 139.5 300.5 136.512 300.5 132.956V7.04402C300.5 3.48775 303.796 0.5 308 0.5Z" stroke="#C0C0C0"/>
<path opacity="0.4" d="M368 0.5H392C396.204 0.5 399.5 3.48775 399.5 7.04402V132.956C399.5 136.512 396.204 139.5 392 139.5H368C363.796 139.5 360.5 136.512 360.5 132.956V7.04402C360.5 3.48775 363.796 0.5 368 0.5Z" stroke="#C0C0C0"/>
<path opacity="0.2" d="M428 0.5H452C456.204 0.5 459.5 3.48775 459.5 7.04402V132.956C459.5 136.512 456.204 139.5 452 139.5H428C423.796 139.5 420.5 136.512 420.5 132.956V7.04402C420.5 3.48775 423.796 0.5 428 0.5Z" stroke="#C0C0C0"/>
<path opacity="0.2" d="M488 0.5H512C516.204 0.5 519.5 3.48775 519.5 7.04402V132.956C519.5 136.512 516.204 139.5 512 139.5H488C483.796 139.5 480.5 136.512 480.5 132.956V7.04402C480.5 3.48775 483.796 0.5 488 0.5Z" stroke="#C0C0C0"/>
<path opacity="0.2" d="M548 0.5H572C576.204 0.5 579.5 3.48775 579.5 7.04402V132.956C579.5 136.512 576.204 139.5 572 139.5H548C543.796 139.5 540.5 136.512 540.5 132.956V7.04402C540.5 3.48775 543.796 0.5 548 0.5Z" stroke="#C0C0C0"/>
<path opacity="0.2" d="M608 0.5H632C636.204 0.5 639.5 3.48775 639.5 7.04402V132.956C639.5 136.512 636.204 139.5 632 139.5H608C603.796 139.5 600.5 136.512 600.5 132.956V7.04402C600.5 3.48775 603.796 0.5 608 0.5Z" stroke="#C0C0C0"/>
<path opacity="0.2" d="M668 0.5H692C696.204 0.5 699.5 3.48775 699.5 7.04402V132.956C699.5 136.512 696.204 139.5 692 139.5H668C663.796 139.5 660.5 136.512 660.5 132.956V7.04402C660.5 3.48775 663.796 0.5 668 0.5Z" stroke="#C0C0C0"/>
<path opacity="0.2" d="M728 0.5H752C756.204 0.5 759.5 3.48775 759.5 7.04402V132.956C759.5 136.512 756.204 139.5 752 139.5H728C723.796 139.5 720.5 136.512 720.5 132.956V7.04402C720.5 3.48775 723.796 0.5 728 0.5Z" stroke="#C0C0C0"/>
<path opacity="0.2" d="M788 0.5H812C816.204 0.5 819.5 3.48775 819.5 7.04402V132.956C819.5 136.512 816.204 139.5 812 139.5H788C783.796 139.5 780.5 136.512 780.5 132.956V7.04402C780.5 3.48775 783.796 0.5 788 0.5Z" stroke="#C0C0C0"/>
</svg>
